<svg width="32" height="32" viewBox="0 0 32 32" fill="none" xmlns="http://www.w3.org/2000/svg">
<path d="M2.6665 7.99317C2.6665 7.25984 3.26117 6.6665 3.99317 6.6665H14.6732C15.025 6.6665 15.3625 6.80628 15.6113 7.05508C15.8601 7.30387 15.9998 7.64132 15.9998 7.99317C15.9998 8.34502 15.8601 8.68247 15.6113 8.93127C15.3625 9.18006 15.025 9.31984 14.6732 9.31984H3.99317C3.64132 9.31984 3.30387 9.18006 3.05508 8.93127C2.80628 8.68247 2.6665 8.34502 2.6665 7.99317ZM2.6665 15.9998C2.6665 15.2665 3.26117 14.6732 3.99317 14.6732H28.0065C28.3584 14.6732 28.6958 14.8129 28.9446 15.0617C29.1934 15.3105 29.3332 15.648 29.3332 15.9998C29.3332 16.3517 29.1934 16.6891 28.9446 16.9379C28.6958 17.1867 28.3584 17.3265 28.0065 17.3265H3.99317C3.64132 17.3265 3.30387 17.1867 3.05508 16.9379C2.80628 16.6891 2.6665 16.3517 2.6665 15.9998ZM3.99317 22.6798C3.64132 22.6798 3.30387 22.8196 3.05508 23.0684C2.80628 23.3172 2.6665 23.6546 2.6665 24.0065C2.6665 24.3584 2.80628 24.6958 3.05508 24.9446C3.30387 25.1934 3.64132 25.3332 3.99317 25.3332H20.0065C20.3584 25.3332 20.6958 25.1934 20.9446 24.9446C21.1934 24.6958 21.3332 24.3584 21.3332 24.0065C21.3332 23.6546 21.1934 23.3172 20.9446 23.0684C20.6958 22.8196 20.3584 22.6798 20.0065 22.6798H3.99317Z" fill="black"/>
</svg>
