<svg width="32" height="32" viewBox="0 0 32 32" fill="none" xmlns="http://www.w3.org/2000/svg">
<g clip-path="url(#clip0_68_41)">
<path fill-rule="evenodd" clip-rule="evenodd" d="M13.9999 2.6665C12.1926 2.66666 10.4117 3.09899 8.80553 3.92743C7.19938 4.75587 5.81464 5.95639 4.76683 7.42884C3.71902 8.90129 3.03853 10.603 2.78213 12.3919C2.52573 14.1808 2.70085 16.0051 3.29289 17.7126C3.88493 19.4201 4.87671 20.9612 6.1855 22.2075C7.49429 23.4537 9.08212 24.3689 10.8165 24.8766C12.5509 25.3844 14.3816 25.47 16.1559 25.1264C17.9301 24.7827 19.5964 24.0198 21.0159 22.9012L25.8852 27.7705C26.1367 28.0134 26.4735 28.1478 26.8231 28.1447C27.1726 28.1417 27.5071 28.0015 27.7543 27.7543C28.0015 27.507 28.1417 27.1726 28.1447 26.823C28.1478 26.4734 28.0134 26.1366 27.7705 25.8852L22.9012 21.0158C24.2185 19.3447 25.0387 17.3364 25.268 15.2208C25.4972 13.1052 25.1262 10.9679 24.1975 9.05329C23.2687 7.13873 21.8197 5.52431 20.0163 4.39481C18.2128 3.26531 16.1278 2.66636 13.9999 2.6665ZM5.33318 13.9998C5.33318 11.7013 6.24628 9.49689 7.87159 7.87158C9.49691 6.24626 11.7013 5.33317 13.9999 5.33317C16.2984 5.33317 18.5028 6.24626 20.1281 7.87158C21.7534 9.49689 22.6665 11.7013 22.6665 13.9998C22.6665 16.2984 21.7534 18.5028 20.1281 20.1281C18.5028 21.7534 16.2984 22.6665 13.9999 22.6665C11.7013 22.6665 9.49691 21.7534 7.87159 20.1281C6.24628 18.5028 5.33318 16.2984 5.33318 13.9998Z" fill="#CDA78F"/>
</g>
<defs>
<clipPath id="clip0_68_41">
<rect width="32" height="32" fill="white"/>
</clipPath>
</defs>
</svg>
